<?xml version="1.0" standalone="no"?>
<!DOCTYPE svg PUBLIC "-//W3C//DTD SVG 20010904//EN"
 "http://www.w3.org/TR/2001/REC-SVG-20010904/DTD/svg10.dtd">
<svg version="1.0" xmlns="http://www.w3.org/2000/svg"
 width="320.000000pt" height="320.000000pt" viewBox="0 0 320.000000 320.000000"
 preserveAspectRatio="xMidYMid meet">
<metadata>
Created by potrace 1.11, written by Peter Selinger 2001-2013
</metadata>
<g transform="translate(0.000000,320.000000) scale(0.100000,-0.100000)"
fill="#000000" stroke="none">
<path d="M0 1600 l0 -1600 1600 0 1600 0 0 1600 0 1600 -1600 0 -1600 0 0
-1600z m2218 53 l2 -293 -55 0 -55 0 0 296 0 295 53 -3 52 -3 3 -292z m-328
187 l5 -55 43 -3 43 -3 -3 -47 -3 -47 -42 -3 -43 -3 0 -99 c0 -107 11 -133 51
-123 20 6 20 7 6 18 -24 17 -10 25 45 25 l48 0 0 -55 c0 -40 -4 -55 -12 -53
-7 1 -39 -10 -72 -26 -58 -27 -59 -28 -102 -11 -69 26 -74 40 -74 192 l0 133
-35 0 -35 0 0 49 c0 49 1 50 33 53 32 3 32 4 35 61 l3 58 52 -3 52 -3 5 -55z
m-833 -61 c68 -26 125 -112 127 -194 l1 -50 -152 -3 c-84 -1 -153 -6 -153 -10
0 -22 49 -64 83 -72 51 -11 123 9 119 33 -2 14 6 17 48 17 l50 0 0 -39 c0 -22
3 -47 7 -57 5 -14 2 -16 -17 -11 -12 3 -32 0 -44 -8 -11 -7 -48 -20 -81 -29
-53 -13 -67 -14 -113 -1 -102 26 -160 94 -169 195 -9 98 34 177 122 223 35 19
131 22 172 6z m538 -11 c47 -37 55 -72 55 -248 l0 -160 -55 0 -55 0 0 135 c0
178 -14 206 -94 191 -61 -12 -67 -28 -69 -183 l-2 -138 -57 -3 -58 -3 0 211 0
211 58 -3 c48 -3 57 -6 54 -20 -3 -20 13 -24 24 -7 25 41 155 52 199 17z
m1014 2 c69 -35 111 -107 111 -191 l0 -49 -150 0 c-82 0 -150 -4 -150 -9 0
-20 44 -61 75 -70 32 -9 89 -2 113 13 6 4 9 13 5 21 -4 12 6 15 51 15 l56 0 0
-56 c0 -47 -3 -55 -16 -50 -8 3 -30 -2 -47 -11 -61 -31 -132 -43 -185 -29 -65
18 -83 28 -125 75 -41 45 -51 85 -45 171 5 74 43 133 107 167 57 30 145 31
200 3z m-2016 -13 c-1 -13 3 -16 15 -11 101 42 122 38 122 -27 0 -38 -1 -39
-35 -39 -41 0 -95 -24 -95 -43 -1 -6 -2 -70 -3 -142 l-2 -130 -57 -3 -58 -3 0
211 0 211 58 -3 c48 -3 57 -6 55 -21z"/>
<path d="M934 1690 c-24 -9 -54 -47 -54 -67 0 -10 24 -13 93 -13 52 0 97 3
100 6 4 4 -1 19 -10 35 -26 44 -78 60 -129 39z"/>
<path d="M2450 1672 c-53 -53 -43 -62 65 -62 105 0 114 7 72 55 -15 18 -36 28
-64 32 -37 5 -45 2 -73 -25z"/>
</g>
</svg>
